<svg xmlns="http://www.w3.org/2000/svg" xmlns:xlink="http://www.w3.org/1999/xlink" width="500" zoomAndPan="magnify" viewBox="0 0 375 374.999991" height="500" preserveAspectRatio="xMidYMid meet" version="1.0"><defs><g/><clipPath id="41d0ebcf51"><path d="M 21.265625 20.535156 L 358.765625 20.535156 L 358.765625 358 L 21.265625 358 Z M 21.265625 20.535156 " clip-rule="nonzero"/></clipPath><clipPath id="4c6a87b41e"><path d="M 33.75 0 L 341.25 0 C 359.890625 0 375 15.109375 375 33.75 L 375 341.25 C 375 359.890625 359.890625 375 341.25 375 L 33.75 375 C 15.109375 375 0 359.890625 0 341.25 L 0 33.75 C 0 15.109375 15.109375 0 33.75 0 Z M 33.75 0 " clip-rule="nonzero"/></clipPath><clipPath id="48378fac37"><path d="M 55.125 56.640625 L 190.875 56.640625 L 190.875 192.390625 L 55.125 192.390625 Z M 55.125 56.640625 " clip-rule="nonzero"/></clipPath><clipPath id="ff642b6f91"><path d="M 79.875 56.640625 L 165.761719 56.640625 C 172.324219 56.640625 178.621094 59.25 183.261719 63.890625 C 187.902344 68.53125 190.507812 74.828125 190.507812 81.390625 L 190.507812 167.996094 C 190.507812 174.558594 187.902344 180.851562 183.261719 185.496094 C 178.621094 190.136719 172.324219 192.742188 165.761719 192.742188 L 79.875 192.742188 C 73.3125 192.742188 67.015625 190.136719 62.375 185.496094 C 57.734375 180.851562 55.125 174.558594 55.125 167.996094 L 55.125 81.390625 C 55.125 74.828125 57.734375 68.53125 62.375 63.890625 C 67.015625 59.25 73.3125 56.640625 79.875 56.640625 Z M 79.875 56.640625 " clip-rule="nonzero"/></clipPath><clipPath id="2d43e21f6b"><path d="M 222 51.390625 L 311 51.390625 L 311 187.140625 L 222 187.140625 Z M 222 51.390625 " clip-rule="nonzero"/></clipPath><clipPath id="b7673ef135"><path d="M 205.046875 213.84375 L 256 213.84375 L 256 264.84375 L 205.046875 264.84375 Z M 205.046875 213.84375 " clip-rule="nonzero"/></clipPath><clipPath id="9112895f69"><path d="M 204.296875 228.09375 L 204.296875 250.484375 C 204.296875 258.769531 211.011719 265.484375 219.296875 265.484375 L 241.6875 265.484375 C 249.972656 265.484375 256.6875 258.769531 256.6875 250.484375 L 256.6875 228.09375 C 256.6875 219.808594 249.972656 213.09375 241.6875 213.09375 L 219.296875 213.09375 C 211.011719 213.09375 204.296875 219.808594 204.296875 228.09375 Z M 204.296875 228.09375 " clip-rule="nonzero"/></clipPath><clipPath id="da062ca123"><path d="M 220.195312 213.992188 L 240.789062 213.992188 C 249.074219 213.992188 255.789062 220.707031 255.789062 228.992188 L 255.789062 249.585938 C 255.789062 257.871094 249.074219 264.585938 240.789062 264.585938 L 220.195312 264.585938 C 211.910156 264.585938 205.195312 257.871094 205.195312 249.585938 L 205.195312 228.992188 C 205.195312 220.707031 211.910156 213.992188 220.195312 213.992188 Z M 220.195312 213.992188 " clip-rule="nonzero"/></clipPath><clipPath id="d428355db8"><path d="M 204.296875 213.09375 L 256.785156 213.09375 L 256.785156 265.582031 L 204.296875 265.582031 Z M 204.296875 213.09375 " clip-rule="nonzero"/></clipPath><clipPath id="1d9a37cdd5"><path d="M 204.296875 228.09375 L 204.296875 250.484375 C 204.296875 258.769531 211.011719 265.484375 219.296875 265.484375 L 241.6875 265.484375 C 249.972656 265.484375 256.6875 258.769531 256.6875 250.484375 L 256.6875 228.09375 C 256.6875 219.808594 249.972656 213.09375 241.6875 213.09375 L 219.296875 213.09375 C 211.011719 213.09375 204.296875 219.808594 204.296875 228.09375 Z M 204.296875 228.09375 " clip-rule="nonzero"/></clipPath><clipPath id="5db5d1c7a1"><path d="M 204.296875 228.089844 L 204.296875 250.476562 C 204.296875 258.761719 211.011719 265.476562 219.292969 265.476562 L 241.679688 265.476562 C 249.964844 265.476562 256.679688 258.761719 256.679688 250.476562 L 256.679688 228.089844 C 256.679688 219.808594 249.964844 213.09375 241.679688 213.09375 L 219.292969 213.09375 C 211.011719 213.09375 204.296875 219.808594 204.296875 228.089844 Z M 204.296875 228.089844 " clip-rule="nonzero"/></clipPath><clipPath id="a8b06e1738"><path d="M 265.117188 213.84375 L 316 213.84375 L 316 264.84375 L 265.117188 264.84375 Z M 265.117188 213.84375 " clip-rule="nonzero"/></clipPath><clipPath id="01285ccd08"><path d="M 264.367188 228.09375 L 264.367188 250.484375 C 264.367188 258.769531 271.082031 265.484375 279.367188 265.484375 L 301.757812 265.484375 C 310.042969 265.484375 316.757812 258.769531 316.757812 250.484375 L 316.757812 228.09375 C 316.757812 219.808594 310.042969 213.09375 301.757812 213.09375 L 279.367188 213.09375 C 271.082031 213.09375 264.367188 219.808594 264.367188 228.09375 Z M 264.367188 228.09375 " clip-rule="nonzero"/></clipPath><clipPath id="3b45fb3e21"><path d="M 280.265625 213.992188 L 300.859375 213.992188 C 309.144531 213.992188 315.859375 220.707031 315.859375 228.992188 L 315.859375 249.585938 C 315.859375 257.871094 309.144531 264.585938 300.859375 264.585938 L 280.265625 264.585938 C 271.984375 264.585938 265.265625 257.871094 265.265625 249.585938 L 265.265625 228.992188 C 265.265625 220.707031 271.984375 213.992188 280.265625 213.992188 Z M 280.265625 213.992188 " clip-rule="nonzero"/></clipPath><clipPath id="6e5ec31ece"><path d="M 264.367188 213.09375 L 316.859375 213.09375 L 316.859375 265.582031 L 264.367188 265.582031 Z M 264.367188 213.09375 " clip-rule="nonzero"/></clipPath><clipPath id="1ff8b52372"><path d="M 264.367188 228.09375 L 264.367188 250.484375 C 264.367188 258.769531 271.082031 265.484375 279.367188 265.484375 L 301.757812 265.484375 C 310.042969 265.484375 316.757812 258.769531 316.757812 250.484375 L 316.757812 228.09375 C 316.757812 219.808594 310.042969 213.09375 301.757812 213.09375 L 279.367188 213.09375 C 271.082031 213.09375 264.367188 219.808594 264.367188 228.09375 Z M 264.367188 228.09375 " clip-rule="nonzero"/></clipPath><clipPath id="562ffc6dd9"><path d="M 264.367188 228.089844 L 264.367188 250.476562 C 264.367188 258.761719 271.082031 265.476562 279.363281 265.476562 L 301.753906 265.476562 C 310.035156 265.476562 316.75 258.761719 316.75 250.476562 L 316.75 228.089844 C 316.75 219.808594 310.035156 213.09375 301.753906 213.09375 L 279.363281 213.09375 C 271.082031 213.09375 264.367188 219.808594 264.367188 228.089844 Z M 264.367188 228.089844 " clip-rule="nonzero"/></clipPath><clipPath id="244722be9c"><path d="M 205.046875 274 L 256 274 L 256 324.851562 L 205.046875 324.851562 Z M 205.046875 274 " clip-rule="nonzero"/></clipPath><clipPath id="997ec87313"><path d="M 204.296875 288.101562 L 204.296875 310.496094 C 204.296875 318.78125 211.011719 325.496094 219.296875 325.496094 L 241.6875 325.496094 C 249.972656 325.496094 256.6875 318.78125 256.6875 310.496094 L 256.6875 288.101562 C 256.6875 279.820312 249.972656 273.101562 241.6875 273.101562 L 219.296875 273.101562 C 211.011719 273.101562 204.296875 279.820312 204.296875 288.101562 Z M 204.296875 288.101562 " clip-rule="nonzero"/></clipPath><clipPath id="4ab1157509"><path d="M 220.195312 274.003906 L 240.789062 274.003906 C 249.074219 274.003906 255.789062 280.71875 255.789062 289.003906 L 255.789062 309.59375 C 255.789062 317.878906 249.074219 324.59375 240.789062 324.59375 L 220.195312 324.59375 C 211.910156 324.59375 205.195312 317.878906 205.195312 309.59375 L 205.195312 289.003906 C 205.195312 280.71875 211.910156 274.003906 220.195312 274.003906 Z M 220.195312 274.003906 " clip-rule="nonzero"/></clipPath><clipPath id="58f1ef50f0"><path d="M 204.296875 273.101562 L 256.785156 273.101562 L 256.785156 325.59375 L 204.296875 325.59375 Z M 204.296875 273.101562 " clip-rule="nonzero"/></clipPath><clipPath id="7e0bfba670"><path d="M 204.296875 288.101562 L 204.296875 310.496094 C 204.296875 318.78125 211.011719 325.496094 219.296875 325.496094 L 241.6875 325.496094 C 249.972656 325.496094 256.6875 318.78125 256.6875 310.496094 L 256.6875 288.101562 C 256.6875 279.820312 249.972656 273.101562 241.6875 273.101562 L 219.296875 273.101562 C 211.011719 273.101562 204.296875 279.820312 204.296875 288.101562 Z M 204.296875 288.101562 " clip-rule="nonzero"/></clipPath><clipPath id="98411bd58c"><path d="M 204.296875 288.101562 L 204.296875 310.488281 C 204.296875 318.773438 211.011719 325.484375 219.292969 325.484375 L 241.679688 325.484375 C 249.964844 325.484375 256.679688 318.773438 256.679688 310.488281 L 256.679688 288.101562 C 256.679688 279.816406 249.964844 273.101562 241.679688 273.101562 L 219.292969 273.101562 C 211.011719 273.101562 204.296875 279.816406 204.296875 288.101562 Z M 204.296875 288.101562 " clip-rule="nonzero"/></clipPath><clipPath id="d45c248f98"><path d="M 265.117188 274 L 316 274 L 316 324.851562 L 265.117188 324.851562 Z M 265.117188 274 " clip-rule="nonzero"/></clipPath><clipPath id="1cccdff64e"><path d="M 264.367188 288.101562 L 264.367188 310.496094 C 264.367188 318.78125 271.082031 325.496094 279.367188 325.496094 L 301.757812 325.496094 C 310.042969 325.496094 316.757812 318.78125 316.757812 310.496094 L 316.757812 288.101562 C 316.757812 279.820312 310.042969 273.101562 301.757812 273.101562 L 279.367188 273.101562 C 271.082031 273.101562 264.367188 279.820312 264.367188 288.101562 Z M 264.367188 288.101562 " clip-rule="nonzero"/></clipPath><clipPath id="47d982a7b2"><path d="M 280.265625 274.003906 L 300.859375 274.003906 C 309.144531 274.003906 315.859375 280.71875 315.859375 289.003906 L 315.859375 309.59375 C 315.859375 317.878906 309.144531 324.59375 300.859375 324.59375 L 280.265625 324.59375 C 271.984375 324.59375 265.265625 317.878906 265.265625 309.59375 L 265.265625 289.003906 C 265.265625 280.71875 271.984375 274.003906 280.265625 274.003906 Z M 280.265625 274.003906 " clip-rule="nonzero"/></clipPath><clipPath id="5d645eef60"><path d="M 264.367188 273.101562 L 316.859375 273.101562 L 316.859375 325.59375 L 264.367188 325.59375 Z M 264.367188 273.101562 " clip-rule="nonzero"/></clipPath><clipPath id="61c9bd55de"><path d="M 264.367188 288.101562 L 264.367188 310.496094 C 264.367188 318.78125 271.082031 325.496094 279.367188 325.496094 L 301.757812 325.496094 C 310.042969 325.496094 316.757812 318.78125 316.757812 310.496094 L 316.757812 288.101562 C 316.757812 279.820312 310.042969 273.101562 301.757812 273.101562 L 279.367188 273.101562 C 271.082031 273.101562 264.367188 279.820312 264.367188 288.101562 Z M 264.367188 288.101562 " clip-rule="nonzero"/></clipPath><clipPath id="45d7adb260"><path d="M 264.367188 288.101562 L 264.367188 310.488281 C 264.367188 318.773438 271.082031 325.484375 279.363281 325.484375 L 301.753906 325.484375 C 310.035156 325.484375 316.75 318.773438 316.75 310.488281 L 316.75 288.101562 C 316.75 279.816406 310.035156 273.101562 301.753906 273.101562 L 279.363281 273.101562 C 271.082031 273.101562 264.367188 279.816406 264.367188 288.101562 Z M 264.367188 288.101562 " clip-rule="nonzero"/></clipPath></defs><g clip-path="url(#41d0ebcf51)"><path fill="#ffffff" d="M 346.429688 20.535156 L 33.308594 20.535156 C 26.660156 20.535156 21.265625 25.929688 21.265625 32.578125 L 21.265625 345.699219 C 21.265625 352.371094 26.660156 357.742188 33.308594 357.742188 L 346.429688 357.742188 C 353.078125 357.742188 358.472656 352.347656 358.472656 345.699219 L 358.472656 32.578125 C 358.472656 25.929688 353.078125 20.535156 346.429688 20.535156 Z M 346.429688 20.535156 " fill-opacity="1" fill-rule="nonzero"/></g><g clip-path="url(#4c6a87b41e)"><path stroke-linecap="butt" transform="matrix(0.75, 0, 0, 0.75, 0.0000045, -0.000000000000042633)" fill="none" stroke-linejoin="miter" d="M 44.999994 0.000000000000056843 L 454.999995 0.000000000000056843 C 479.854161 0.000000000000056843 499.999995 20.145833 499.999995 45 L 499.999995 455.000001 C 499.999995 479.854167 479.854161 500.000001 454.999995 500.000001 L 44.999994 500.000001 C 20.145827 500.000001 -0.000006 479.854167 -0.000006 455.000001 L -0.000006 45 C -0.000006 20.145833 20.145827 0.000000000000056843 44.999994 0.000000000000056843 Z M 44.999994 0.000000000000056843 " stroke="#ffbf53" stroke-width="82" stroke-opacity="1" stroke-miterlimit="4"/></g><g clip-path="url(#48378fac37)"><g clip-path="url(#ff642b6f91)"><path stroke-linecap="butt" transform="matrix(0.75, 0, 0, 0.75, 55.126393, 56.641568)" fill="none" stroke-linejoin="miter" d="M 32.998147 -0.00125771 L 147.513787 -0.00125771 C 156.263788 -0.00125771 164.659623 3.477909 170.847123 9.66541 C 177.034624 15.852911 180.508583 24.248745 180.508583 32.998747 L 180.508583 148.47272 C 180.508583 157.222721 177.034624 165.613347 170.847123 171.806056 C 164.659623 177.993557 156.263788 181.467516 147.513787 181.467516 L 32.998147 181.467516 C 24.248146 181.467516 15.852312 177.993557 9.664811 171.806056 C 3.47731 165.613347 -0.00185717 157.222721 -0.00185717 148.47272 L -0.00185717 32.998747 C -0.00185717 24.248745 3.47731 15.852911 9.664811 9.66541 C 15.852312 3.477909 24.248146 -0.00125771 32.998147 -0.00125771 Z M 32.998147 -0.00125771 " stroke="#f49900" stroke-width="78" stroke-opacity="1" stroke-miterlimit="4"/></g></g><g clip-path="url(#2d43e21f6b)"><path fill="#f49900" d="M 266.617188 51.390625 C 238.503906 51.390625 222.558594 67.144531 222.105469 89.945312 L 222.105469 91.085938 L 246.925781 91.085938 L 246.925781 89.945312 C 247.46875 79.875 254.4375 73.378906 264.96875 73.378906 C 275.410156 73.378906 282.367188 79.414062 282.367188 87.929688 C 282.367188 96.449219 278.796875 100.847656 266.984375 107.902344 C 254.34375 115.320312 249.300781 123.5625 250.492188 138.214844 L 250.636719 142.125 L 274.949219 142.125 L 274.949219 138.40625 C 274.949219 129.613281 278.339844 125.117188 290.519531 118.070312 C 303.433594 110.464844 310.113281 100.851562 310.113281 87.113281 C 310.113281 65.953125 292.8125 51.390625 266.617188 51.390625 Z M 263.316406 159.136719 C 254 159.136719 248.1875 164.546875 248.1875 173.359375 C 248.1875 182.09375 254.007812 187.492188 263.316406 187.492188 C 272.628906 187.492188 278.371094 182.09375 278.371094 173.359375 C 278.371094 164.546875 272.636719 159.136719 263.316406 159.136719 Z M 263.316406 159.136719 " fill-opacity="1" fill-rule="nonzero"/></g><g clip-path="url(#b7673ef135)"><g clip-path="url(#9112895f69)"><g clip-path="url(#da062ca123)"><path fill="#ffbf53" d="M 255.902344 213.0625 L 205.015625 213.0625 C 204.601562 213.0625 204.265625 213.398438 204.265625 213.8125 L 204.265625 264.699219 C 204.265625 265.109375 204.601562 265.445312 205.015625 265.445312 L 255.902344 265.445312 C 256.3125 265.445312 256.648438 265.109375 256.648438 264.699219 L 256.648438 213.8125 C 256.648438 213.398438 256.3125 213.0625 255.902344 213.0625 Z M 255.152344 263.949219 L 205.761719 263.949219 L 205.761719 214.558594 L 255.152344 214.558594 Z M 255.152344 263.949219 " fill-opacity="1" fill-rule="nonzero"/></g></g></g><g clip-path="url(#d428355db8)"><g clip-path="url(#1d9a37cdd5)"><g clip-path="url(#5db5d1c7a1)"><path stroke-linecap="butt" transform="matrix(0.75, 0, 0, 0.75, 204.295918, 213.092756)" fill="none" stroke-linejoin="miter" d="M 0.00127562 19.996119 L 0.00127562 49.845079 C 0.00127562 60.891955 8.954401 69.84508 19.996069 69.84508 L 49.845029 69.84508 C 60.891905 69.84508 69.84503 60.891955 69.84503 49.845079 L 69.84503 19.996119 C 69.84503 8.954451 60.891905 0.00132586 49.845029 0.00132586 L 19.996069 0.00132586 C 8.954401 0.00132586 0.00127562 8.954451 0.00127562 19.996119 Z M 0.00127562 19.996119 " stroke="#f49900" stroke-width="40" stroke-opacity="1" stroke-miterlimit="4"/></g></g></g><g clip-path="url(#a8b06e1738)"><g clip-path="url(#01285ccd08)"><g clip-path="url(#3b45fb3e21)"><path fill="#ffbf53" d="M 315.972656 213.0625 L 265.085938 213.0625 C 264.671875 213.0625 264.335938 213.398438 264.335938 213.8125 L 264.335938 264.699219 C 264.335938 265.109375 264.671875 265.445312 265.085938 265.445312 L 315.972656 265.445312 C 316.386719 265.445312 316.71875 265.109375 316.71875 264.699219 L 316.71875 213.8125 C 316.71875 213.398438 316.386719 213.0625 315.972656 213.0625 Z M 315.222656 263.949219 L 265.835938 263.949219 L 265.835938 214.558594 L 315.222656 214.558594 Z M 315.222656 263.949219 " fill-opacity="1" fill-rule="nonzero"/></g></g></g><g clip-path="url(#6e5ec31ece)"><g clip-path="url(#1ff8b52372)"><g clip-path="url(#562ffc6dd9)"><path stroke-linecap="butt" transform="matrix(0.75, 0, 0, 0.75, 264.36737, 213.092756)" fill="none" stroke-linejoin="miter" d="M -0.00024272 19.996119 L -0.00024272 49.845079 C -0.00024272 60.891955 8.952883 69.84508 19.99455 69.84508 L 49.848719 69.84508 C 60.890386 69.84508 69.843512 60.891955 69.843512 49.845079 L 69.843512 19.996119 C 69.843512 8.954451 60.890386 0.00132586 49.848719 0.00132586 L 19.99455 0.00132586 C 8.952883 0.00132586 -0.00024272 8.954451 -0.00024272 19.996119 Z M -0.00024272 19.996119 " stroke="#f49900" stroke-width="40" stroke-opacity="1" stroke-miterlimit="4"/></g></g></g><g clip-path="url(#244722be9c)"><g clip-path="url(#997ec87313)"><g clip-path="url(#4ab1157509)"><path fill="#ffbf53" d="M 255.902344 273.074219 L 205.015625 273.074219 C 204.601562 273.074219 204.265625 273.410156 204.265625 273.820312 L 204.265625 324.707031 C 204.265625 325.121094 204.601562 325.457031 205.015625 325.457031 L 255.902344 325.457031 C 256.3125 325.457031 256.648438 325.121094 256.648438 324.707031 L 256.648438 273.820312 C 256.648438 273.410156 256.3125 273.074219 255.902344 273.074219 Z M 255.152344 323.960938 L 205.761719 323.960938 L 205.761719 274.570312 L 255.152344 274.570312 Z M 255.152344 323.960938 " fill-opacity="1" fill-rule="nonzero"/></g></g></g><g clip-path="url(#58f1ef50f0)"><g clip-path="url(#7e0bfba670)"><g clip-path="url(#98411bd58c)"><path stroke-linecap="butt" transform="matrix(0.75, 0, 0, 0.75, 204.295918, 273.103312)" fill="none" stroke-linejoin="miter" d="M 0.00127562 19.997669 L 0.00127562 49.846629 C 0.00127562 60.893505 8.954401 69.841422 19.996069 69.841422 L 49.845029 69.841422 C 60.891905 69.841422 69.84503 60.893505 69.84503 49.846629 L 69.84503 19.997669 C 69.84503 8.950793 60.891905 -0.00233222 49.845029 -0.00233222 L 19.996069 -0.00233222 C 8.954401 -0.00233222 0.00127562 8.950793 0.00127562 19.997669 Z M 0.00127562 19.997669 " stroke="#f49900" stroke-width="40" stroke-opacity="1" stroke-miterlimit="4"/></g></g></g><g clip-path="url(#d45c248f98)"><g clip-path="url(#1cccdff64e)"><g clip-path="url(#47d982a7b2)"><path fill="#ffbf53" d="M 315.972656 273.074219 L 265.085938 273.074219 C 264.671875 273.074219 264.335938 273.410156 264.335938 273.820312 L 264.335938 324.707031 C 264.335938 325.121094 264.671875 325.457031 265.085938 325.457031 L 315.972656 325.457031 C 316.386719 325.457031 316.71875 325.121094 316.71875 324.707031 L 316.71875 273.820312 C 316.71875 273.410156 316.386719 273.074219 315.972656 273.074219 Z M 315.222656 323.960938 L 265.835938 323.960938 L 265.835938 274.570312 L 315.222656 274.570312 Z M 315.222656 323.960938 " fill-opacity="1" fill-rule="nonzero"/></g></g></g><g clip-path="url(#5d645eef60)"><g clip-path="url(#61c9bd55de)"><g clip-path="url(#45d7adb260)"><path stroke-linecap="butt" transform="matrix(0.75, 0, 0, 0.75, 264.36737, 273.103312)" fill="none" stroke-linejoin="miter" d="M -0.00024272 19.997669 L -0.00024272 49.846629 C -0.00024272 60.893505 8.952883 69.841422 19.99455 69.841422 L 49.848719 69.841422 C 60.890386 69.841422 69.843512 60.893505 69.843512 49.846629 L 69.843512 19.997669 C 69.843512 8.950793 60.890386 -0.00233222 49.848719 -0.00233222 L 19.99455 -0.00233222 C 8.952883 -0.00233222 -0.00024272 8.950793 -0.00024272 19.997669 Z M -0.00024272 19.997669 " stroke="#f49900" stroke-width="40" stroke-opacity="1" stroke-miterlimit="4"/></g></g></g><g fill="#f49900" fill-opacity="1"><g transform="translate(66.501461, 322.228294)"><g><path d="M 14.625 -82.09375 C 13.226562 -80.351562 11.265625 -78.945312 8.734375 -77.875 C 6.210938 -76.800781 3.796875 -76.265625 1.484375 -76.265625 L 1.484375 -93.25 C 5.117188 -93.820312 8.734375 -95.265625 12.328125 -97.578125 C 15.929688 -99.898438 18.519531 -102.921875 20.09375 -106.640625 L 37.203125 -106.640625 L 37.203125 0 L 14.625 0 Z M 14.625 -82.09375 "/></g></g></g><g fill="#f49900" fill-opacity="1"><g transform="translate(113.372478, 322.228294)"><g><path d="M 30.625 0.984375 C 21.613281 0.984375 14.671875 -1.554688 9.796875 -6.640625 C 4.921875 -11.722656 2.484375 -18.972656 2.484375 -28.390625 L 2.484375 -76.515625 C 2.484375 -86.597656 4.835938 -94.285156 9.546875 -99.578125 C 14.253906 -104.867188 21.28125 -107.515625 30.625 -107.515625 C 40.050781 -107.515625 47.117188 -104.867188 51.828125 -99.578125 C 56.546875 -94.285156 58.90625 -86.597656 58.90625 -76.515625 L 58.90625 -28.390625 C 58.90625 -18.890625 56.460938 -11.617188 51.578125 -6.578125 C 46.703125 -1.535156 39.71875 0.984375 30.625 0.984375 Z M 30.625 -18.59375 C 32.195312 -18.59375 33.476562 -19.316406 34.46875 -20.765625 C 35.457031 -22.210938 35.953125 -23.929688 35.953125 -25.921875 L 35.953125 -78.484375 C 35.953125 -81.546875 35.601562 -83.882812 34.90625 -85.5 C 34.207031 -87.113281 32.78125 -87.921875 30.625 -87.921875 C 28.476562 -87.921875 27.070312 -87.113281 26.40625 -85.5 C 25.75 -83.882812 25.421875 -81.546875 25.421875 -78.484375 L 25.421875 -25.921875 C 25.421875 -23.929688 25.894531 -22.210938 26.84375 -20.765625 C 27.789062 -19.316406 29.050781 -18.59375 30.625 -18.59375 Z M 30.625 -18.59375 "/></g></g></g></svg>