<svg xmlns="http://www.w3.org/2000/svg" xmlns:xlink="http://www.w3.org/1999/xlink" width="500" zoomAndPan="magnify" viewBox="0 0 375 374.999991" height="500" preserveAspectRatio="xMidYMid meet" version="1.0"><defs><g/><clipPath id="7971be465e"><path d="M 21.265625 20.535156 L 358.765625 20.535156 L 358.765625 358 L 21.265625 358 Z M 21.265625 20.535156 " clip-rule="nonzero"/></clipPath><clipPath id="61880a31da"><path d="M 187.5 0 C 83.945312 0 0 83.945312 0 187.5 C 0 291.054688 83.945312 375 187.5 375 C 291.054688 375 375 291.054688 375 187.5 C 375 83.945312 291.054688 0 187.5 0 Z M 187.5 0 " clip-rule="nonzero"/></clipPath></defs><g clip-path="url(#7971be465e)"><path fill="#ffffff" d="M 346.429688 20.535156 L 33.308594 20.535156 C 26.660156 20.535156 21.265625 25.929688 21.265625 32.578125 L 21.265625 345.699219 C 21.265625 352.371094 26.660156 357.742188 33.308594 357.742188 L 346.429688 357.742188 C 353.078125 357.742188 358.472656 352.347656 358.472656 345.699219 L 358.472656 32.578125 C 358.472656 25.929688 353.078125 20.535156 346.429688 20.535156 Z M 346.429688 20.535156 " fill-opacity="1" fill-rule="nonzero"/></g><g clip-path="url(#61880a31da)"><rect x="-37.5" width="450" fill="#fffbeb" y="-37.499999" height="449.999989" fill-opacity="1"/><path stroke-linecap="butt" transform="matrix(0.75, 0, 0, 0.75, 0.0000045, -0.000000000000042633)" fill="none" stroke-linejoin="miter" d="M 249.999994 0.000000000000056843 C 111.927078 0.000000000000056843 -0.000006 111.927084 -0.000006 250 C -0.000006 388.072917 111.927078 500.000001 249.999994 500.000001 C 388.072911 500.000001 499.999995 388.072917 499.999995 250 C 499.999995 111.927084 388.072911 0.000000000000056843 249.999994 0.000000000000056843 Z M 249.999994 0.000000000000056843 " stroke="#ffbf53" stroke-width="82" stroke-opacity="1" stroke-miterlimit="4"/></g><g fill="#000000" fill-opacity="1"><g transform="translate(54.498049, 275.15794)"><g><path d="M 64.5 -175 L 133 -81.75 L 202 -175 L 228 -175 L 228 0 L 201 0 L 201 -73.25 C 201 -84.082031 201.207031 -94.332031 201.625 -104 C 202.039062 -113.664062 202.75 -123.25 203.75 -132.75 L 141 -50.25 L 124.5 -50.25 L 62.25 -132.75 C 63.25 -123.082031 63.957031 -113.457031 64.375 -103.875 C 64.789062 -94.289062 65 -84.082031 65 -73.25 L 65 0 L 38 0 L 38 -175 Z M 64.5 -175 "/></g></g></g></svg>